<?xml version="1.0" encoding="UTF-8"?>
<svg id="Layer_1" data-name="Layer 1" xmlns="http://www.w3.org/2000/svg" width="40" height="40" viewBox="0 0 40 40">
  <defs>
    <style>
      .cls-1 {
        fill: #fff;
      }
    </style>
  </defs>
  <circle class="cls-1" cx="20" cy="20" r="20"/>
  <path d="M20,8c-6.617,0-12,5.383-12,12v1.13l-1.605.241c-.811.122-1.07,1.162-.41,1.65l4.057,2.999c.409.302.985.216,1.287-.193l2.999-4.057c.487-.659-.066-1.578-.876-1.457l-1.452.218v-.53c0-4.411,3.589-8,8-8s8,3.589,8,8-3.589,8-8,8c-1.104,0-2,.896-2,2s.896,2,2,2c6.617,0,12-5.383,12-12s-5.383-12-12-12Z"/>
</svg>