<?xml version="1.0" encoding="UTF-8"?><svg id="Layer_1" xmlns="http://www.w3.org/2000/svg" width="100" height="100" viewBox="0 0 100 100"><defs><style>.cls-1{fill:none;stroke:#000;stroke-miterlimit:10;stroke-width:4px;}</style></defs><path class="cls-1" d="M51.91,84.59c12.18-8.82.42-19.74-9.66-15.96-10.08,3.78,3.36,7.98,23.1,1.26s-14.7-16.38-31.08-13.86c-16.38,2.52,8.4,13.44,24.36-2.1,15.96-15.54-4.62-23.1-7.56-15.54s2.1,14.28,18.06,18.48c15.96,4.2-11.34-15.12-26.46-18.48-15.12-3.36-23.94,4.62-11.76,8.82,12.18,4.2,17.22-13.44,10.92-17.22s-10.08,10.5-3.36,29.82c6.72,19.32,31.08-5.04,36.54-14.7"/></svg>