<?xml version="1.0" encoding="UTF-8"?><svg id="Layer_1" xmlns="http://www.w3.org/2000/svg" width="100" height="100" viewBox="0 0 100 100"><defs><style>.cls-1{fill:none;stroke:#000;stroke-miterlimit:10;stroke-width:4px;}</style></defs><path class="cls-1" d="M48.45,85.98c9.25-6.94,8.32-18.96-9.25-12.95-17.57,6.01,5.09,6.94,25.43-1.39,20.34-8.32,12.95-16.18-9.71-18.03-22.66-1.85-50.4,2.31-26.82,7.4,23.58,5.09,51.78-18.03,40.23-24.04-11.56-6.01-11.1,40.69,2.77,37.91,13.87-2.77-22.19-30.98-37.91-32.37-15.72-1.39-9.71,33.75,5.55,25.43,15.26-8.32,11.56-52.71-1.39-53.17-12.95-.46,2.41,29.28,39.61,36.27"/></svg>