<?xml version="1.0" encoding="UTF-8"?><svg id="Layer_1" xmlns="http://www.w3.org/2000/svg" width="100" height="100" viewBox="0 0 100 100"><defs><style>.cls-1{fill:none;stroke:#000;stroke-miterlimit:10;stroke-width:4px;}</style></defs><path class="cls-1" d="M42.84,88.6c4.78-1.41,17.17-14.63,5.07-13.79-12.1.84-18.85,3.94-12.66,4.78s15.48,1.41,21.95-1.41c6.47-2.81-2.53-9.85-15.2-9.57-12.66.28-16.6,3.1-13.23,4.5s27.58,1.41,29.83-4.22-5.35-14.63-16.6-13.79c-11.26.84-7.6,5.91-2.81,6.75,4.78.84,29.55,4.22,34.89-2.25,5.35-6.47-25.05-5.07-34.33,5.63s3.1,11.26,12.66,1.41c9.57-9.85,10.41-21.95,5.63-24.2-4.78-2.25-14.35-2.25-25.33,6.19-10.97,8.44-6.47,10.97-3.94,12.1s10.69-9.01,10.97-21.67c.28-12.66,32.36-23.92,22.23-13.79-10.13,10.13-28.98,9.29-30.67,13.23s7.6,16.6,32.92,12.1c25.33-4.5,19.14-16.6,6.47-16.6s-14.35,15.48-24.48,24.2c-10.13,8.72-7.88-29.27-.84-35.46s31.52,13.23,25.33,18.85c-6.19,5.63-46.71-5.07-48.4,2.25-1.69,7.32,56-21.67,55.72-18.01-.28,3.66-29.55,7.6-29.55,20.54s32.64-1.97,32.92,5.07c.28,7.04-23.92,13.23-36.3,14.63-12.38,1.41-31.52,6.47-26.73-1.41,4.78-7.88,27.3-8.44,35.74-11.26s-12.94-21.11-22.23-22.51-3.94-17.73,9.29-15.48c13.23,2.25,13.23,5.63,10.69,12.38-2.53,6.75-31.52-8.16-31.52-8.16"/></svg>