<?xml version="1.0" encoding="UTF-8"?><svg id="Layer_1" xmlns="http://www.w3.org/2000/svg" width="100" height="100" viewBox="0 0 100 100"><defs><style>.cls-1{fill:none;stroke:#000;stroke-miterlimit:10;stroke-width:4px;}</style></defs><path class="cls-1" d="M49.03,88.54c-9.42-6.41-5.61-24.85,8.62-28.06s-13.43,17.84-21.44,14.43c-8.02-3.41-.4-10.62,4.61-11.62s14.43,14.63,24.25,11.42c9.82-3.21-16.63-10.62-22.65-19.84-6.01-9.22.6-18.64,15.03-15.83,14.43,2.81-18.44,18.44-25.05,22.25s-6.61,9.22,5.61,7.42c12.22-1.8-2.61-7.01-5.81-19.44-3.21-12.43,3.81-8.82,15.43-5.01,11.62,3.81,11.02-9.22,6.61-13.23s-12.83,6.81-2.81,22.25c10.02,15.43,19.04,9.02,22.04,5.81,3.01-3.21-22.85-9.82-46.09-7.82-23.25,2-13.83-22.85,6.41-16.63,20.24,6.21,21.44,14.23,34.07,12.83,12.63-1.4,21.24-14.63,10.22-16.03s-24.25,14.23-41.48,14.23-21.64-10.42-21.44-16.83,12.63-16.63,24.85-5.01c12.22,11.62,20.44,16.23,26.65,15.03,6.21-1.2,16.03-24.25-7.42-22.85-23.45,1.4-34.87,6.01-35.27,11.22-.4,5.21,17.64.4,28.46-2"/></svg>