<?xml version="1.0" encoding="UTF-8"?><svg id="Layer_1" xmlns="http://www.w3.org/2000/svg" width="100" height="100" viewBox="0 0 100 100"><defs><style>.cls-1{fill:none;stroke:#000;stroke-miterlimit:10;stroke-width:4px;}</style></defs><path class="cls-1" d="M71.43,16.91c-8.04,15.83-38.88,39.26-42.72,23.12-2.51-10.55-.75-25.88,21.61-9.3,17.45,12.94,15.33,35.18-.75,30.16-16.08-5.03-41.21-20.1-17.34-26.64,23.87-6.53,46.99,17.59,37.44,19.6-9.55,2.01-41.46-21.86-30.91-33.67,10.55-11.81,34.18,20.86,18.34,32.92-15.83,12.06-40.46,9.3-32.17-.5s51.26-.5,42.97-17.34c-8.29-16.84-33.17-11.56-24.63,11.81,8.54,23.37-11.81,31.16-7.54,22.87s30.16-35.68,18.34-32.17c-11.81,3.52-15.58,32.17-11.06,33.93,4.52,1.76,26.64-12.56,20.86-14.58s-18.6,17.09-17.09,21.61c1.51,4.52,13.15-3.43,15.45-6.41,4.27-5.53-12.82-6.6-10.93,11.69,1.48,14.35,18.09-7.73,18.09-7.73"/></svg>