<?xml version="1.0" encoding="UTF-8"?><svg id="Layer_1" xmlns="http://www.w3.org/2000/svg" width="100" height="100" viewBox="0 0 100 100"><defs><style>.cls-1{fill:none;stroke:#000;stroke-miterlimit:10;stroke-width:4px;}</style></defs><path class="cls-1" d="M47.79,79.61c-4.38,6.3-8.9,0-4.66-11.51,4.25-11.51,17.53-16.85,25.07-15.07s-2.19,13.01-14.66,14.52c-12.46,1.51-23.54,0-24.93-6.3-1.92-8.7,16.98,3.01,25.34,1.51,7.02-1.27,7.67-14.24.82-19.72-6.85-5.48-18.49-2.19-18.9,7.67-.41,9.86,14.38,9.45,17.26-.82,2.88-10.27-15.89-18.08-24.38-16.44s-14.93,12.19,0,16.85c14.93,4.66,37.12-3.56,44.38-9.72,7.26-6.16,10.27-20.27-7.67-17.94-17.94,2.33-29.04,11.09-29.86,16.44s1.23,11.37,8.63,8.49,5.2-31.09-4.66-29.04c-9.86,2.05,4.66,15.48,15.48,16.98,10.82,1.51,19.31-3.42,17.94-6.3-1.37-2.88-14.24,1.78-14.11,11.37.14,9.59,13.83,9.59,20.41,8.63"/></svg>