<?xml version="1.0" encoding="UTF-8"?><svg id="Layer_1" xmlns="http://www.w3.org/2000/svg" width="30" height="30" viewBox="0 0 30 30"><defs><style>.cls-1{fill:none;stroke:#0a774b;stroke-linecap:round;stroke-miterlimit:10;stroke-width:2px;}.cls-2{fill:#0a774b;}</style></defs><path class="cls-1" d="M24,25H6c-.55,0-1-.45-1-1V7c0-.55.45-1,1-1h18c.55,0,1,.45,1,1v17c0,.55-.45,1-1,1Z"/><rect class="cls-2" x="4.21" y="7" width="21.58" height="3.26"/><rect class="cls-2" x="12" y="12" width="2" height="2"/><rect class="cls-2" x="16" y="12" width="2" height="2"/><rect class="cls-2" x="20" y="12" width="2" height="2"/><rect class="cls-2" x="8" y="16" width="2" height="2"/><rect class="cls-2" x="12" y="16" width="2" height="2"/><rect class="cls-2" x="16" y="16" width="2" height="2"/><rect class="cls-2" x="20" y="16" width="2" height="2"/><rect class="cls-2" x="8" y="20" width="2" height="2"/><rect class="cls-2" x="12" y="20" width="2" height="2"/><rect class="cls-2" x="16" y="20" width="2" height="2"/></svg>