<?xml version="1.0" encoding="UTF-8"?><svg id="Layer_1" xmlns="http://www.w3.org/2000/svg" width="30" height="30" viewBox="0 0 30 30"><defs><style>.cls-1{fill:none;stroke:#000;stroke-linecap:round;stroke-miterlimit:10;stroke-width:2px;}</style></defs><line class="cls-1" x1="6.38" y1="9.4" x2="12.38" y2="9.4"/><line class="cls-1" x1="9.38" y1="13.39" x2="9.38" y2="5.41"/><line class="cls-1" x1="19.38" y1="20.42" x2="25.38" y2="20.42"/><line class="cls-1" x1="22.38" y1="24.41" x2="22.38" y2="16.44"/><line class="cls-1" x1="18" y1="12" x2="5" y2="25"/><path d="M22,7c.55,0,1,.45,1,1s-.45,1-1,1-1-.45-1-1,.45-1,1-1M22,5c-1.66,0-3,1.34-3,3s1.34,3,3,3,3-1.34,3-3-1.34-3-3-3h0Z"/></svg>